<svg width="25" height="26" viewBox="0 0 25 26" fill="none" xmlns="http://www.w3.org/2000/svg">
<g clip-path="url(#clip0_201_28)">
<mask id="mask0_201_28" style="mask-type:luminance" maskUnits="userSpaceOnUse" x="0" y="0" width="25" height="26">
<path d="M25 0.5H0V25.5H25V0.5Z" fill="white"/>
</mask>
<g mask="url(#mask0_201_28)">
<path d="M25 0.5H0V25.5H25V0.5Z" fill="#242326"/>
<path d="M12.0801 10.0638C11.6505 10.8117 11.2178 11.5611 10.7954 12.2928C10.5974 11.9514 10.3999 11.6102 10.2028 11.2692C10.1613 11.1969 10.1116 11.1291 10.0468 11.0298C9.76437 11.5171 9.50026 11.9703 9.23659 12.4247C8.97291 12.8791 8.72013 13.3426 8.44284 13.7905C8.33263 13.9692 8.33703 14.075 8.49401 14.2275C8.92731 14.6483 9.35416 15.0752 9.78102 15.5034L9.69909 15.649L9.18776 16.5287C8.77106 16.5287 8.3588 16.5263 7.94723 16.5219C7.86203 16.5219 7.75626 16.4497 7.69699 16.3798C7.08356 15.653 6.48078 14.9185 5.86828 14.1909C5.76901 14.0736 5.76251 13.9858 5.84122 13.8509C6.65387 12.4561 7.46144 11.0578 8.26388 9.65598C8.34284 9.51873 8.42824 9.46848 8.58795 9.47078C9.56481 9.47888 10.5417 9.47659 11.5181 9.47312C11.6569 9.47312 11.7537 9.49207 11.8338 9.63142C11.9153 9.77527 11.9974 9.91941 12.0801 10.0638Z" fill="#FCFCFC"/>
<path d="M19.1595 13.8511C18.3464 12.4562 17.5392 11.0578 16.738 9.65598C16.6583 9.51873 16.5729 9.46848 16.4139 9.47078C15.4371 9.47888 14.4609 9.47659 13.4838 9.47312C13.3449 9.47312 13.2481 9.49207 13.1688 9.63142L12.4917 10.8053L11.1928 13.0576L9.78193 15.5037L9.69907 15.649L9.18774 16.5287C9.3146 16.5287 9.44238 16.5287 9.56992 16.5287H11.7773C11.7816 16.5287 11.7859 16.5276 11.7896 16.5254C11.7934 16.5232 11.7964 16.5201 11.7986 16.5164L12.4657 15.3495L13.7667 13.0724L14.6875 11.4615L14.6991 11.4405L14.7991 11.2682C14.8407 11.196 14.8896 11.1282 14.9544 11.0289C15.2375 11.5162 15.5016 11.9694 15.7646 12.4238C16.0275 12.8782 16.2817 13.3416 16.5583 13.7895C16.6685 13.9682 16.6641 14.074 16.5072 14.2266C16.0556 14.6664 15.6097 15.1115 15.1646 15.5588L14.7917 14.8979L14.1824 13.8138L13.0981 15.712L12.8785 16.0965L13.1037 16.5034C13.108 16.5112 13.1144 16.5177 13.122 16.5222C13.1296 16.5267 13.1383 16.5291 13.1472 16.5291H15.4234C15.5183 16.5291 15.6132 16.5291 15.7072 16.5291C16.1618 16.5291 16.6076 16.5275 17.0542 16.5224C17.1394 16.5224 17.2458 16.4502 17.3051 16.3803C17.9178 15.6534 18.5206 14.9189 19.1327 14.1914C19.2317 14.0738 19.2382 13.9861 19.1595 13.8511Z" fill="#8D5BDE"/>
</g>
</g>
<defs>
<clipPath id="clip0_201_28">
<rect width="25" height="25" fill="white" transform="translate(0 0.5)"/>
</clipPath>
</defs>
</svg>
