<svg width="39" height="34" viewBox="0 0 39 34" fill="none" xmlns="http://www.w3.org/2000/svg">
<g clip-path="url(#clip0_48_124)">
<path d="M38.6279 25.4906V33.9874H17.0381C10.7481 33.9874 5.25604 30.5702 2.31768 25.4906C1.89052 24.7521 1.51666 23.9774 1.20305 23.1733C0.587412 21.5975 0.200419 19.9066 0.0830078 18.1423V15.8451C0.108498 15.4519 0.148665 15.0618 0.201191 14.6764C0.308561 13.8854 0.470774 13.1114 0.683968 12.3591C2.70081 5.22632 9.25885 0 17.0381 0C24.8174 0 31.3746 5.22632 33.3915 12.3591H24.16C22.6445 10.034 20.0213 8.49688 17.0381 8.49688C14.0549 8.49688 11.4317 10.034 9.91619 12.3591C9.45428 13.0659 9.09585 13.8453 8.86104 14.6764C8.65247 15.4133 8.54124 16.1904 8.54124 16.9937C8.54124 19.4292 9.5655 21.6245 11.2077 23.1733C12.7294 24.6108 14.781 25.4906 17.0381 25.4906H38.6279Z" fill="#FD366E"/>
<path d="M38.6279 14.6765V23.1733H22.8685C24.5108 21.6246 25.535 19.4293 25.535 16.9938C25.535 16.1905 25.4238 15.4134 25.2152 14.6765H38.6279Z" fill="#FD366E"/>
</g>
<defs>
<clipPath id="clip0_48_124">
<rect width="38.8571" height="34" fill="white" transform="translate(0.0830078)"/>
</clipPath>
</defs>
</svg>
