<svg width="21" height="18" viewBox="0 0 21 18" fill="none" xmlns="http://www.w3.org/2000/svg">
<path d="M10.1138 10.787C11.1116 10.787 11.9205 9.97775 11.9205 8.97945C11.9205 7.98116 11.1116 7.17188 10.1138 7.17188C9.1159 7.17188 8.30698 7.98116 8.30698 8.97945C8.30698 9.97775 9.1159 10.787 10.1138 10.787Z" fill="#00D8FF"/>
<path d="M10.1137 13.1207C7.57625 13.1207 5.35916 12.8219 3.69994 12.2529C2.62379 11.8857 1.7096 11.396 1.05816 10.8379C0.367115 10.2473 0 9.60279 0 8.97986C0 7.78441 1.3101 6.61416 3.50919 5.8508C5.30877 5.22427 7.65543 4.875 10.1101 4.875C12.5215 4.875 14.8358 5.21347 16.6246 5.8328C17.6719 6.19288 18.5537 6.66097 19.18 7.17948C19.8602 7.7484 20.2201 8.37133 20.2201 8.97986C20.2201 10.2221 18.7553 11.4788 16.3942 12.2601C14.7242 12.8147 12.4927 13.1207 10.1137 13.1207ZM10.1137 5.73918C7.785 5.73918 5.48153 6.07765 3.79712 6.66458C1.77439 7.37032 0.867399 8.33533 0.867399 8.97986C0.867399 9.6496 1.84277 10.7046 3.98068 11.4356C5.54992 11.9721 7.67342 12.2565 10.1137 12.2565C12.4027 12.2565 14.537 11.9685 16.1243 11.4392C18.345 10.701 19.3599 9.646 19.3599 8.97986C19.3599 8.63779 19.1008 8.2345 18.6293 7.84202C18.0858 7.38833 17.294 6.97424 16.3474 6.64657C14.645 6.06325 12.4315 5.73918 10.1137 5.73918Z" fill="#00D8FF"/>
<path d="M6.01436 17.9889C5.64725 17.9889 5.32332 17.9097 5.04978 17.7513C4.01682 17.1536 3.6569 15.4324 4.0924 13.1459C4.44872 11.2699 5.31972 9.06626 6.54704 6.93821C7.75276 4.84977 9.19963 3.01339 10.6285 1.77112C11.4635 1.04377 12.3093 0.510859 13.0723 0.23C13.9037 -0.076064 14.6236 -0.076064 15.1491 0.2264C16.2252 0.84573 16.5815 2.74693 16.0776 5.18104C15.7213 6.90941 14.8719 8.99424 13.6842 11.0575C12.4173 13.2539 11.0496 15.0255 9.7287 16.1814C8.8721 16.9303 7.9903 17.4776 7.18409 17.7621C6.76299 17.9133 6.36708 17.9889 6.01436 17.9889ZM6.91775 7.15426L7.29207 7.3703C6.12953 9.38673 5.26933 11.5508 4.93821 13.308C4.5387 15.4144 4.92381 16.6819 5.47808 17.0023C5.61485 17.0815 5.79481 17.1248 6.01436 17.1248C6.7306 17.1248 7.85714 16.6711 9.16003 15.5332C10.4089 14.4422 11.7154 12.7426 12.9356 10.629C14.0801 8.64497 14.8935 6.65015 15.2318 5.01181C15.7033 2.71812 15.2966 1.31383 14.7172 0.978958C14.422 0.809722 13.9433 0.831327 13.3675 1.04377C12.7016 1.28862 11.9494 1.76752 11.1936 2.42646C9.83668 3.60751 8.451 5.36468 7.29207 7.3739L6.91775 7.15426Z" fill="#00D8FF"/>
<path d="M14.2133 17.9999C13.2343 17.9999 11.9926 17.4094 10.6969 16.2931C9.25007 15.0473 7.77801 13.1929 6.5471 11.0648C5.33778 8.9764 4.47398 6.80515 4.11046 4.94355C3.89811 3.85613 3.85852 2.85872 3.99529 2.05575C4.14645 1.18076 4.50277 0.557833 5.03185 0.251768C6.1044 -0.371163 7.92918 0.269772 9.78635 1.92252C11.1036 3.09277 12.4857 4.87154 13.677 6.93117C14.9475 9.12763 15.8006 11.1981 16.1389 12.9192C16.3584 14.0355 16.3944 15.0725 16.2397 15.9151C16.0741 16.8117 15.6998 17.449 15.1599 17.7623C14.89 17.9207 14.5696 17.9999 14.2133 17.9999ZM7.29572 10.6328C8.46185 12.6492 9.90872 14.4748 11.262 15.6378C12.8852 17.0349 14.1737 17.3374 14.7316 17.0133C15.3111 16.6784 15.7358 15.3065 15.2967 13.0885C14.9727 11.4609 14.1557 9.48051 12.932 7.36686C11.7839 5.38285 10.463 3.67969 9.21408 2.57066C7.46488 1.01513 6.04681 0.665855 5.46735 1.00073C5.17221 1.16996 4.95267 1.59845 4.84829 2.20338C4.72952 2.90193 4.76551 3.79491 4.95986 4.77792C5.30538 6.54589 6.13319 8.62353 7.29572 10.6328Z" fill="#00D8FF"/>
</svg>
