<svg width="21" height="18" viewBox="0 0 21 18" fill="none" xmlns="http://www.w3.org/2000/svg">
<path fill-rule="evenodd" clip-rule="evenodd" d="M10.1374 3.18848C7.57045 3.18848 5.96654 4.47999 5.32452 7.06302C6.28717 5.7715 7.41013 5.28728 8.69342 5.60997C9.42559 5.79403 9.94916 6.32866 10.5282 6.92058C11.472 7.88444 12.5644 8.99991 14.9499 8.99991C17.5165 8.99991 19.1207 7.70839 19.7624 5.12575C18.8001 6.41726 17.6771 6.90148 16.3939 6.57841C15.6613 6.39435 15.1377 5.85972 14.5587 5.26819C13.6149 4.30356 12.5229 3.18848 10.1374 3.18848ZM5.32452 8.99991C2.75796 8.99991 1.15366 10.2914 0.512024 12.8744C1.47467 11.5829 2.59764 11.0987 3.88054 11.4214C4.61309 11.6055 5.13667 12.1401 5.71569 12.732C6.65948 13.6959 7.75151 14.8113 10.1374 14.8113C12.704 14.8113 14.3082 13.5202 14.9499 10.9372C13.9872 12.2287 12.8643 12.7129 11.581 12.3902C10.8488 12.2058 10.3252 11.6711 9.74622 11.0796C8.80243 10.1158 7.71002 8.99991 5.32452 8.99991Z" fill="#38BDF8"/>
</svg>
