<svg width="18" height="18" viewBox="0 0 18 18" fill="none" xmlns="http://www.w3.org/2000/svg">
<g clip-path="url(#clip0_203_273)">
<path d="M15.3 0H2.7C1.20883 0 0 1.20883 0 2.7V15.3C0 16.7912 1.20883 18 2.7 18H15.3C16.7912 18 18 16.7912 18 15.3V2.7C18 1.20883 16.7912 0 15.3 0Z" fill="#3178C6"/>
<path d="M8.19147 9.98453H10.4415V8.54312H4.1485V9.98453H6.3985V16.4181H8.19147V9.98453ZM11.1446 16.0666C11.4294 16.2142 11.7774 16.3232 12.1641 16.397C12.5508 16.4709 12.9727 16.506 13.3946 16.506C13.8165 16.506 14.2032 16.4673 14.5899 16.3865C14.9766 16.3056 15.293 16.172 15.5743 15.9998C15.859 15.8134 16.1016 15.5779 16.2422 15.2615C16.3829 14.9451 16.4919 14.5935 16.4919 14.1365C16.4919 13.8166 16.4426 13.5388 16.3477 13.2927C16.2528 13.0466 16.1157 12.8357 15.9258 12.6599C15.7465 12.4736 15.5391 12.3084 15.293 12.1677C15.0469 12.0271 14.7657 11.8795 14.4493 11.7459C14.2172 11.6509 14.0274 11.5595 13.8165 11.4681C13.6337 11.3767 13.4755 11.2853 13.3594 11.1939C13.2294 11.099 13.1309 11.0005 13.0606 10.8986C12.9903 10.7931 12.9551 10.6771 12.9551 10.547C12.9551 10.4275 12.9864 10.3185 13.0501 10.2201C13.1137 10.1216 13.2012 10.0408 13.3137 9.97047C13.4262 9.90016 13.5669 9.84742 13.7356 9.80875C13.9008 9.77008 14.0837 9.7525 14.2981 9.7525C14.4458 9.7525 14.6005 9.7634 14.7551 9.78555C14.9169 9.80769 15.0821 9.8418 15.2473 9.8875C15.4126 9.9332 15.5743 9.98945 15.7395 10.0598C15.8942 10.1301 16.0383 10.2109 16.1614 10.3023V8.65C15.8942 8.54805 15.5989 8.4707 15.2825 8.42148C14.9661 8.37227 14.6145 8.34766 14.1926 8.34766C13.7708 8.34766 13.384 8.39336 12.9973 8.48125C12.6106 8.56914 12.2942 8.70977 12.013 8.90313C11.7282 9.09297 11.5208 9.325 11.345 9.64141C11.1797 9.93672 11.0989 10.2742 11.0989 10.6961C11.0989 11.2234 11.2501 11.6805 11.5559 12.032C11.8583 12.4187 12.3294 12.7 12.927 12.9812C13.1696 13.0797 13.384 13.1781 13.595 13.273C13.8059 13.368 13.9817 13.4664 14.1223 13.5684C14.2735 13.6703 14.393 13.7828 14.4739 13.9023C14.5618 14.0219 14.6075 14.1625 14.6075 14.3242C14.6075 14.4367 14.5801 14.5422 14.5266 14.6406C14.4732 14.7391 14.3895 14.8234 14.277 14.8937C14.1645 14.9641 14.0274 15.0203 13.8551 15.0625C13.6899 15.1012 13.5036 15.1223 13.2575 15.1223C12.8708 15.1223 12.484 15.0555 12.1325 14.9219C11.7458 14.7883 11.3942 14.5879 11.1446 14.3791V16.0666Z" fill="white"/>
</g>
<defs>
<clipPath id="clip0_203_273">
<rect width="18" height="18" fill="white"/>
</clipPath>
</defs>
</svg>
